<svg xmlns="http://www.w3.org/2000/svg" width="200" height="200" viewBox="0 0 200 200"><rect width="100%" height="100%" fill="#DDDDDD"/><path fill="#999999" d="M41.32 98.195v5.52q.5.61 1.1.86.59.25 1.29.25.67 0 1.21-.25.54-.25.92-.77.38-.51.58-1.3.2-.78.2-1.85 0-1.08-.17-1.83t-.5-1.22q-.32-.47-.78-.68-.47-.22-1.05-.22-.93 0-1.58.39-.64.39-1.22 1.1Zm-.4-3.06.24 1.14q.76-.85 1.72-1.38.96-.53 2.26-.53 1 0 1.84.42.83.42 1.44 1.22.6.8.93 1.97.33 1.17.33 2.68 0 1.38-.37 2.55-.37 1.18-1.06 2.04-.69.87-1.67 1.35-.98.49-2.19.49-1.03 0-1.76-.32t-1.31-.88v5.04h-2.96v-16.33h1.81q.57 0 .75.54Zm11.1-6.06h2.97v17.83h-2.97v-17.83Zm12.44 14.65v-2.08q-1.29.06-2.16.23-.88.16-1.41.41-.53.25-.75.59-.23.33-.23.73 0 .78.46 1.12.46.33 1.21.33.91 0 1.57-.33.67-.33 1.31-1Zm-6.27-6.47-.53-.95q2.13-1.94 5.12-1.94 1.08 0 1.93.35.85.36 1.44.99t.89 1.5q.31.88.31 1.92v7.78H66q-.42 0-.64-.13-.23-.12-.36-.51l-.27-.88q-.47.42-.91.73-.44.32-.92.54-.48.21-1.03.33-.55.11-1.21.11-.78 0-1.44-.21-.66-.21-1.14-.63-.48-.42-.74-1.04-.26-.63-.26-1.45 0-.47.15-.93.16-.47.51-.89.36-.42.92-.79.56-.37 1.39-.65.82-.27 1.91-.45 1.09-.17 2.5-.21v-.72q0-1.23-.53-1.83-.53-.59-1.53-.59-.72 0-1.19.17t-.83.38q-.36.21-.66.37-.29.17-.65.17-.31 0-.53-.16-.22-.16-.35-.38Zm21.54-1.14-.78 1.08q-.13.17-.26.27-.12.09-.36.09-.23 0-.45-.14-.21-.13-.51-.31-.3-.17-.72-.31-.41-.14-1.02-.14-.78 0-1.37.28-.59.29-.98.81-.39.53-.58 1.28-.19.75-.19 1.7 0 .98.21 1.75t.6 1.29q.4.52.96.79.57.27 1.28.27.7 0 1.14-.17.44-.17.74-.38t.52-.39q.22-.17.5-.17.36 0 .54.27l.85 1.08q-.49.58-1.07.97-.57.39-1.19.62-.62.24-1.27.33-.66.1-1.3.1-1.14 0-2.15-.43-1.01-.42-1.77-1.24-.75-.81-1.19-2-.44-1.18-.44-2.69 0-1.36.39-2.51.39-1.16 1.15-2.01.75-.84 1.87-1.32 1.12-.48 2.57-.48 1.38 0 2.42.44 1.03.44 1.86 1.27Zm4.31 3.22h5.59q0-.58-.16-1.09-.16-.51-.49-.89-.32-.39-.82-.61-.5-.22-1.16-.22-1.28 0-2.02.73t-.94 2.08Zm7.56 1.79h-7.62q.07.94.34 1.63.26.69.69 1.14.43.45 1.03.68.59.22 1.31.22.72 0 1.24-.17.53-.17.92-.37.39-.21.68-.37.29-.17.57-.17.37 0 .55.27l.85 1.08q-.49.58-1.1.97-.61.39-1.28.62-.66.24-1.35.33-.69.1-1.34.1-1.29 0-2.39-.43-1.1-.42-1.92-1.26-.82-.83-1.28-2.06-.47-1.23-.47-2.85 0-1.26.41-2.37.4-1.11 1.17-1.93.76-.82 1.86-1.3 1.09-.48 2.47-.48 1.17 0 2.15.37.99.37 1.69 1.08.71.72 1.11 1.76.41 1.03.41 2.37 0 .67-.15.9-.14.24-.55.24Zm5.88-12.05v6.84q.72-.67 1.58-1.09.87-.42 2.03-.42 1.01 0 1.79.34t1.3.96q.52.62.79 1.47.27.86.27 1.89v7.84h-2.96v-7.84q0-1.12-.52-1.74-.51-.62-1.57-.62-.77 0-1.44.35-.67.35-1.27.95v8.9h-2.96v-17.83h2.96Zm16.02 5.33q1.37 0 2.49.44t1.92 1.26q.8.82 1.23 1.99.43 1.18.43 2.63 0 1.46-.43 2.64-.43 1.18-1.23 2-.8.83-1.92 1.28-1.12.44-2.49.44-1.38 0-2.51-.44-1.13-.45-1.92-1.28-.8-.82-1.24-2-.44-1.18-.44-2.64 0-1.45.44-2.63.44-1.17 1.24-1.99.79-.82 1.92-1.26 1.13-.44 2.51-.44Zm0 10.4q1.54 0 2.27-1.03.74-1.03.74-3.03 0-1.99-.74-3.03-.73-1.05-2.27-1.05-1.56 0-2.31 1.05t-.75 3.03q0 1.98.75 3.02t2.31 1.04Zm8.38-15.73h2.96v17.83h-2.96v-17.83Zm13.65 14.18v-5.52q-.5-.61-1.1-.86-.59-.25-1.27-.25t-1.22.25q-.54.25-.92.76t-.59 1.3q-.2.78-.2 1.85 0 1.08.17 1.83.18.75.5 1.22.32.48.79.69.47.21 1.05.21.92 0 1.57-.39.65-.38 1.22-1.09Zm0-14.18h2.97v17.83h-1.82q-.58 0-.74-.54l-.25-1.19q-.75.85-1.71 1.38-.97.53-2.25.53-1.01 0-1.85-.42-.84-.42-1.45-1.22-.6-.8-.93-1.97-.33-1.18-.33-2.69 0-1.37.37-2.54.37-1.18 1.07-2.04.69-.87 1.67-1.35.97-.49 2.18-.49 1.03 0 1.76.32.74.33 1.31.88v-6.49Zm8.23 10.26h5.6q0-.58-.17-1.09-.16-.51-.48-.89-.33-.39-.82-.61-.5-.22-1.16-.22-1.29 0-2.02.73-.74.73-.95 2.08Zm7.56 1.79h-7.62q.08.94.34 1.63t.7 1.14q.43.45 1.02.68.6.22 1.32.22.72 0 1.24-.17t.91-.37q.39-.21.68-.37.3-.17.57-.17.38 0 .56.27l.85 1.08q-.49.58-1.11.97-.61.39-1.27.62-.67.24-1.36.33-.69.1-1.34.1-1.28 0-2.39-.43-1.1-.42-1.92-1.26-.81-.83-1.28-2.06t-.47-2.85q0-1.26.41-2.37t1.17-1.93q.76-.82 1.86-1.3 1.1-.48 2.48-.48 1.16 0 2.15.37.98.37 1.69 1.08.71.72 1.11 1.76.4 1.03.4 2.37 0 .67-.14.9-.15.24-.56.24Zm5.54-5.79.18 1.39q.57-1.1 1.36-1.73.8-.63 1.88-.63.85 0 1.36.37l-.19 2.22q-.06.22-.17.31-.12.09-.31.09-.18 0-.53-.06-.36-.06-.69-.06-.49 0-.88.14-.38.15-.69.42-.3.27-.54.65-.23.38-.44.88v7.58h-2.96v-12.31h1.74q.46 0 .64.16t.24.58Z"/></svg>